<svg width="46" height="32" viewBox="0 0 46 32" fill="none" xmlns="http://www.w3.org/2000/svg">
<path d="M0.83917 0.0561487C0.329154 0.0795439 6.10352e-05 0.313495 6.10352e-05 0.815713V23.2455C6.10352e-05 23.6354 0.279243 23.9879 0.709716 23.9879H40.7499C41.1086 23.9879 41.3971 23.9552 41.5656 23.481C41.5656 23.481 45.6239 10.7821 45.6941 10.5544C45.8438 10.0724 45.7487 9.83068 45.3385 9.56865C32.2964 1.21499 12.7973 0 3.94294 0C2.67024 0 1.62213 0.0233953 0.83917 0.0561487Z" fill="url(#paint0_linear_738_82)"/>
<path d="M9.11952 14.3927C7.6503 13.6815 6.64899 13.3119 6.89074 12.5976C7.1746 11.7522 8.65474 11.4325 9.9945 11.4621C10.6714 11.4793 11.1518 11.565 11.7024 11.6914L12.1874 10.1629C11.4887 10.0334 10.9911 9.96949 10.1567 9.94765C7.47094 9.88526 5.04251 10.6261 4.42176 12.1952C3.68091 14.0527 5.77712 15.1008 7.59259 15.9618C9.03842 16.6465 10.177 17.2953 9.77771 18.15C9.46421 18.8098 8.44418 19.1233 6.9578 19.0889C5.67263 19.0593 4.06771 18.6881 2.80437 18.0533L2.0526 19.6816C2.98217 20.1121 4.89746 20.6985 6.53357 20.7391C9.60458 20.8062 11.5947 20.0372 12.3902 18.3606C13.3322 16.3829 10.9943 15.3005 9.1164 14.3943L9.11952 14.3927Z" fill="white"/>
<path d="M13.287 17.1846C13.3026 17.222 13.3291 17.2329 13.3697 17.2329C13.4102 17.2329 13.4305 17.2205 13.443 17.1846C13.4601 17.1315 14.9387 12.5476 14.9387 12.5476C16.4469 14.7047 17.9442 17.5433 18.7443 20.5441H21.2055L22.4205 16.7432C22.433 16.7058 22.461 16.6964 22.5 16.6964C22.539 16.6964 22.5718 16.7089 22.5749 16.7432C22.9461 19.1279 25.3184 20.7329 28.6795 20.7329C30.8568 20.7329 32.8189 20.162 33.3071 19.9L34.5798 15.8885H39.4741L39.97 14.3335H35.0773L35.9211 11.7007H41.7543L42.2596 10.088H34.0698L31.2904 18.7786C30.6993 18.9283 29.9709 18.9985 29.2098 18.9985C27.5674 18.9985 26.2542 18.6101 25.5087 17.7414C24.9503 17.0879 24.7288 16.2456 24.8661 15.3052C25.1952 13.0655 27.3772 11.6539 30.2953 11.6539C30.9083 11.6539 31.54 11.6898 32.1077 11.7631L32.6832 10.074C31.9813 9.96793 31.1298 9.91958 30.2953 9.91958C27.7078 9.91958 25.4588 10.8102 24.002 12.3792C23.9583 12.4275 23.9084 12.426 23.8804 12.426C23.8351 12.426 23.8055 12.4166 23.8164 12.3792L24.5479 10.0896H22.4111L20.0747 17.417C19.3323 15.2553 17.8023 12.4088 15.9322 10.0896H13.641L11.9269 15.4253C12.7895 16.06 13.0608 16.5264 13.2854 17.1846H13.287Z" fill="white"/>
<path d="M6.10352e-05 27.8092H1.02789L2.03701 30.4872H2.04792L3.07575 27.8092H4.03964L2.35518 31.8955H1.63461L0.00162105 27.8092H6.10352e-05Z" fill="#6E1E78"/>
<path d="M4.96921 29.8524C4.96921 29.5248 5.0238 29.2285 5.13297 28.9633C5.24215 28.6982 5.395 28.472 5.59152 28.2849C5.78804 28.0977 6.02043 27.9558 6.29026 27.8544C6.56008 27.7546 6.8533 27.7047 7.17304 27.7047C7.49277 27.7047 7.78599 27.7546 8.05582 27.8544C8.32564 27.9542 8.55804 28.0977 8.75456 28.2849C8.95108 28.472 9.10393 28.6982 9.2131 28.9633C9.32228 29.2285 9.37687 29.5248 9.37687 29.8524C9.37687 30.1799 9.32228 30.4762 9.2131 30.7414C9.10393 31.0065 8.95108 31.2327 8.75456 31.4198C8.55804 31.607 8.32564 31.7505 8.05582 31.8503C7.78599 31.9501 7.49277 32 7.17304 32C6.8533 32 6.56008 31.9501 6.29026 31.8503C6.02043 31.7505 5.78804 31.607 5.59152 31.4198C5.395 31.2327 5.24215 31.0065 5.13297 30.7414C5.0238 30.4762 4.96921 30.1799 4.96921 29.8524ZM5.90346 29.8524C5.90346 30.0442 5.93309 30.2204 5.99236 30.3795C6.05163 30.5386 6.13741 30.6774 6.24971 30.7944C6.36045 30.9114 6.49458 31.0034 6.65055 31.0689C6.80651 31.1344 6.97964 31.1672 7.17304 31.1672C7.36644 31.1672 7.53956 31.1344 7.69553 31.0689C7.8515 31.0034 7.98563 30.9129 8.09637 30.7944C8.20867 30.6774 8.29289 30.5386 8.35372 30.3795C8.41299 30.2204 8.44262 30.0442 8.44262 29.8524C8.44262 29.6605 8.41299 29.489 8.35372 29.3268C8.29445 29.1645 8.20867 29.0257 8.09637 28.9088C7.98407 28.7918 7.8515 28.6998 7.69553 28.6343C7.53956 28.5687 7.36488 28.536 7.17304 28.536C6.9812 28.536 6.80651 28.5687 6.65055 28.6343C6.49458 28.6998 6.36045 28.7918 6.24971 28.9088C6.13741 29.0257 6.05319 29.1661 5.99236 29.3268C5.93309 29.489 5.90346 29.6636 5.90346 29.8524Z" fill="#6E1E78"/>
<path d="M11.5994 30.1518L10.0647 27.8092H11.1845L12.0502 29.3392L12.9673 27.8092H14.0341L12.4994 30.1518V31.894H11.5994V30.1518Z" fill="#6E1E78"/>
<path d="M16.0897 27.8092H16.8337L18.6117 31.8955H17.5964L17.2439 31.0299H15.6561L15.3161 31.8955H14.3242L16.0897 27.8092ZM16.436 28.9977L15.94 30.2672H16.9382L16.436 28.9977Z" fill="#6E1E78"/>
<path d="M23.4405 31.607C23.1754 31.7458 22.8978 31.8456 22.6092 31.9065C22.3207 31.9673 22.0259 31.9985 21.7264 31.9985C21.4067 31.9985 21.1135 31.9486 20.8437 31.8488C20.5738 31.7489 20.3414 31.6054 20.1449 31.4183C19.9484 31.2311 19.7955 31.005 19.6864 30.7398C19.5772 30.4747 19.5226 30.1783 19.5226 29.8508C19.5226 29.5233 19.5772 29.2269 19.6864 28.9618C19.7955 28.6966 19.9484 28.4705 20.1449 28.2833C20.3414 28.0962 20.5738 27.9542 20.8437 27.8529C21.1135 27.753 21.4067 27.7031 21.7264 27.7031C22.0462 27.7031 22.355 27.7421 22.6295 27.8217C22.904 27.9012 23.1457 28.0369 23.3532 28.2287L22.7184 28.9212C22.5952 28.7949 22.4564 28.6982 22.3035 28.6327C22.1491 28.5672 21.9573 28.5344 21.7264 28.5344C21.5346 28.5344 21.3599 28.5672 21.2039 28.6327C21.048 28.6982 20.9138 28.7902 20.8031 28.9072C20.6908 29.0242 20.6066 29.1645 20.5458 29.3252C20.4865 29.4874 20.4569 29.6621 20.4569 29.8508C20.4569 30.0395 20.4865 30.2189 20.5458 30.378C20.605 30.5371 20.6908 30.6759 20.8031 30.7929C20.9138 30.9098 21.048 31.0019 21.2039 31.0674C21.3599 31.1329 21.533 31.1656 21.7264 31.1656C21.9198 31.1656 22.0914 31.1438 22.2349 31.0986C22.3768 31.0549 22.4907 31.0097 22.5749 30.9629V30.3H21.8418V29.4687H23.4405V31.607Z" fill="#6E1E78"/>
<path d="M25.1031 27.8092H27.8794V28.6405H26.0031V29.4016H27.7749V30.2329H26.0031V31.0642H27.9823V31.8955H25.1031V27.8092Z" fill="#6E1E78"/>
<path d="M32.8704 30.3203C32.8704 30.562 32.8345 30.7851 32.7612 30.9894C32.6879 31.1937 32.5787 31.3699 32.4352 31.5197C32.2917 31.6694 32.1108 31.7864 31.8956 31.8722C31.6803 31.9564 31.4323 31.9985 31.1516 31.9985C30.8709 31.9985 30.6166 31.9564 30.4014 31.8722C30.1862 31.7879 30.0068 31.671 29.8617 31.5197C29.7167 31.3684 29.6091 31.1921 29.5358 30.9894C29.4625 30.7866 29.4266 30.562 29.4266 30.3203V27.8092H30.3265V30.2844C30.3265 30.4107 30.3468 30.5293 30.3874 30.6369C30.4279 30.7445 30.4841 30.8381 30.5574 30.9161C30.6307 30.9956 30.718 31.0564 30.8194 31.1001C30.9208 31.1438 31.0315 31.1672 31.1516 31.1672C31.2717 31.1672 31.3809 31.1453 31.4807 31.1001C31.5805 31.0564 31.6679 30.9941 31.7412 30.9161C31.8145 30.8381 31.8706 30.7445 31.9112 30.6369C31.9517 30.5293 31.972 30.4123 31.972 30.2844V27.8092H32.8719V30.3203H32.8704Z" fill="#6E1E78"/>
<path d="M34.4222 27.8092H36.0038C36.2112 27.8092 36.4093 27.8295 36.5949 27.87C36.782 27.9106 36.9443 27.9776 37.0846 28.0712C37.225 28.1648 37.3373 28.2927 37.42 28.4518C37.5026 28.6109 37.5432 28.8105 37.5432 29.0491C37.5432 29.3377 37.4683 29.5825 37.3186 29.7853C37.1689 29.9865 36.9489 30.116 36.6604 30.169L37.6991 31.894H36.6198L35.7651 30.261H35.3206V31.894H34.4207V27.8076L34.4222 27.8092ZM35.3222 29.4999H35.8525C35.9336 29.4999 36.0194 29.4968 36.1098 29.4921C36.2003 29.4858 36.2814 29.4687 36.3547 29.4406C36.428 29.411 36.4888 29.3673 36.5372 29.3049C36.5855 29.2441 36.6089 29.1567 36.6089 29.0444C36.6089 28.94 36.5871 28.8573 36.545 28.7965C36.5029 28.7356 36.4483 28.6873 36.3828 28.6545C36.3173 28.6218 36.2424 28.5999 36.1582 28.5875C36.074 28.5765 35.9913 28.5703 35.9102 28.5703H35.3222V29.4999Z" fill="#6E1E78"/>
<path d="M40.9043 28.8074C40.831 28.7154 40.7327 28.6467 40.6064 28.6031C40.4816 28.5594 40.3631 28.536 40.2508 28.536C40.1853 28.536 40.1182 28.5438 40.0496 28.5594C39.981 28.575 39.9155 28.5984 39.8531 28.6311C39.7922 28.6639 39.7408 28.7076 39.7033 28.7606C39.6643 28.8152 39.6456 28.8791 39.6456 28.9571C39.6456 29.0803 39.6924 29.1739 39.7844 29.2394C39.8765 29.3049 39.9934 29.3611 40.1338 29.4063C40.2742 29.4515 40.4255 29.4983 40.5861 29.5451C40.7483 29.5919 40.898 29.6558 41.0384 29.7416C41.1788 29.8274 41.2958 29.9397 41.3878 30.0816C41.4798 30.2236 41.5266 30.4138 41.5266 30.6525C41.5266 30.8911 41.4845 31.0783 41.4003 31.2467C41.316 31.4152 41.2006 31.5571 41.0571 31.6678C40.9136 31.7801 40.7452 31.8628 40.5549 31.9158C40.3646 31.9689 40.1634 31.9969 39.9513 31.9969C39.6862 31.9969 39.4397 31.9564 39.212 31.8753C38.9843 31.7942 38.7738 31.6632 38.5772 31.4822L39.2183 30.7788C39.3103 30.902 39.4273 30.9972 39.5676 31.0642C39.708 31.1313 39.8531 31.1656 40.0028 31.1656C40.0761 31.1656 40.1494 31.1563 40.2243 31.1391C40.2991 31.1219 40.3662 31.0954 40.4255 31.0611C40.4847 31.0268 40.5331 30.9831 40.569 30.9285C40.6048 30.874 40.6235 30.8116 40.6235 30.7383C40.6235 30.6151 40.5768 30.5183 40.4816 30.4466C40.388 30.3749 40.2695 30.3156 40.126 30.2641C39.9841 30.2142 39.8297 30.1643 39.6643 30.1144C39.499 30.0645 39.3446 29.9974 39.2027 29.9132C39.0607 29.829 38.9422 29.7167 38.8471 29.5779C38.7535 29.4391 38.7051 29.2566 38.7051 29.0304C38.7051 28.8043 38.7488 28.6187 38.8346 28.4533C38.9204 28.288 39.0358 28.1492 39.1808 28.0385C39.3259 27.9277 39.4912 27.8435 39.6799 27.7873C39.8687 27.7312 40.0621 27.7031 40.2633 27.7031C40.4941 27.7031 40.7171 27.7359 40.9324 27.8014C41.1476 27.8669 41.3426 27.9761 41.5157 28.1305L40.898 28.8058L40.9043 28.8074Z" fill="#6E1E78"/>
<defs>
<linearGradient id="paint0_linear_738_82" x1="6.10352e-05" y1="16" x2="45.7034" y2="16" gradientUnits="userSpaceOnUse">
<stop stop-color="#822266"/>
<stop offset="0.25" stop-color="#AF1173"/>
<stop offset="0.81" stop-color="#DC0E0E"/>
<stop offset="1" stop-color="#DC0E0E"/>
</linearGradient>
</defs>
</svg>
